<mxfile host="app.diagrams.net" modified="2020-06-16T15:33:44.433Z" agent="5.0 (Windows)" etag="h806x1jqf1uvpL1jynYl" version="13.1.3" type="github" pages="4">
  <diagram id="R-Nu654iIUbksNBEsx-R" name="Use Case">
    <mxGraphModel dx="1422" dy="791" grid="1" gridSize="10" guides="1" tooltips="1" connect="1" arrows="1" fold="1" page="1" pageScale="1" pageWidth="827" pageHeight="1169" math="0" shadow="0">
      <root>
        <mxCell id="0" />
        <mxCell id="1" parent="0" />
        <mxCell id="B4n3a4-8SpJCIGj7s7li-1" value="&lt;ul id=&quot;yui_3_17_2_1_1592047968993_45&quot;&gt;&lt;li&gt;Общая use-case диаграмма&lt;/li&gt;&lt;li id=&quot;yui_3_17_2_1_1592047968993_44&quot;&gt;sequence диаграмма&lt;/li&gt;&lt;li id=&quot;yui_3_17_2_1_1592047968993_46&quot;&gt;activity диаграмма (на отдельные фичи&lt;br/&gt;программы)&lt;/li&gt;&lt;li&gt;Общая диаграмма классов (свое видение&lt;br/&gt;на текущий момент)&lt;/li&gt;&lt;/ul&gt;" style="text;html=1;align=center;verticalAlign=middle;resizable=0;points=[];autosize=1;" parent="1" vertex="1">
          <mxGeometry x="530" width="290" height="110" as="geometry" />
        </mxCell>
        <mxCell id="Al_W_ACZ2qxixBHebDrC-18" value="" style="edgeStyle=orthogonalEdgeStyle;rounded=0;orthogonalLoop=1;jettySize=auto;html=1;" parent="1" source="Al_W_ACZ2qxixBHebDrC-4" target="Al_W_ACZ2qxixBHebDrC-17" edge="1">
          <mxGeometry relative="1" as="geometry" />
        </mxCell>
        <mxCell id="Al_W_ACZ2qxixBHebDrC-20" value="" style="edgeStyle=orthogonalEdgeStyle;rounded=0;orthogonalLoop=1;jettySize=auto;html=1;" parent="1" source="Al_W_ACZ2qxixBHebDrC-4" target="Al_W_ACZ2qxixBHebDrC-19" edge="1">
          <mxGeometry relative="1" as="geometry" />
        </mxCell>
        <mxCell id="Al_W_ACZ2qxixBHebDrC-22" value="" style="edgeStyle=orthogonalEdgeStyle;rounded=0;orthogonalLoop=1;jettySize=auto;html=1;" parent="1" source="Al_W_ACZ2qxixBHebDrC-4" target="Al_W_ACZ2qxixBHebDrC-21" edge="1">
          <mxGeometry relative="1" as="geometry" />
        </mxCell>
        <mxCell id="Al_W_ACZ2qxixBHebDrC-51" style="edgeStyle=orthogonalEdgeStyle;rounded=0;orthogonalLoop=1;jettySize=auto;html=1;entryX=0.5;entryY=0;entryDx=0;entryDy=0;entryPerimeter=0;" parent="1" source="Al_W_ACZ2qxixBHebDrC-4" target="Al_W_ACZ2qxixBHebDrC-49" edge="1">
          <mxGeometry relative="1" as="geometry" />
        </mxCell>
        <mxCell id="Al_W_ACZ2qxixBHebDrC-4" value="Actor" style="shape=umlActor;verticalLabelPosition=bottom;labelBackgroundColor=#ffffff;verticalAlign=top;html=1;outlineConnect=0;" parent="1" vertex="1">
          <mxGeometry x="280" y="20" width="30" height="60" as="geometry" />
        </mxCell>
        <mxCell id="Al_W_ACZ2qxixBHebDrC-21" value="Администратор" style="shape=umlActor;verticalLabelPosition=bottom;labelBackgroundColor=#ffffff;verticalAlign=top;html=1;outlineConnect=0;" parent="1" vertex="1">
          <mxGeometry x="160" y="160" width="30" height="60" as="geometry" />
        </mxCell>
        <mxCell id="Al_W_ACZ2qxixBHebDrC-19" value="Пользователь" style="shape=umlActor;verticalLabelPosition=bottom;labelBackgroundColor=#ffffff;verticalAlign=top;html=1;outlineConnect=0;" parent="1" vertex="1">
          <mxGeometry x="440" y="170" width="30" height="60" as="geometry" />
        </mxCell>
        <mxCell id="Al_W_ACZ2qxixBHebDrC-17" value="&lt;div&gt;Автор&lt;/div&gt;" style="shape=umlActor;verticalLabelPosition=bottom;labelBackgroundColor=#ffffff;verticalAlign=top;html=1;outlineConnect=0;" parent="1" vertex="1">
          <mxGeometry x="500" y="255" width="30" height="60" as="geometry" />
        </mxCell>
        <mxCell id="Al_W_ACZ2qxixBHebDrC-25" value="&lt;div&gt;Добавление статьи&lt;/div&gt;" style="ellipse;whiteSpace=wrap;html=1;" parent="1" vertex="1">
          <mxGeometry x="260" y="390" width="100" height="30" as="geometry" />
        </mxCell>
        <mxCell id="Al_W_ACZ2qxixBHebDrC-31" value="&lt;div&gt;Удаление статьи&lt;/div&gt;" style="ellipse;whiteSpace=wrap;html=1;" parent="1" vertex="1">
          <mxGeometry x="260" y="350" width="100" height="30" as="geometry" />
        </mxCell>
        <mxCell id="Al_W_ACZ2qxixBHebDrC-32" value="&lt;div&gt;Чтение статьи&lt;/div&gt;" style="ellipse;whiteSpace=wrap;html=1;" parent="1" vertex="1">
          <mxGeometry x="260" y="270" width="100" height="30" as="geometry" />
        </mxCell>
        <mxCell id="Al_W_ACZ2qxixBHebDrC-36" value="" style="endArrow=none;html=1;entryX=0;entryY=1;entryDx=0;entryDy=0;entryPerimeter=0;exitX=0.95;exitY=0.233;exitDx=0;exitDy=0;exitPerimeter=0;" parent="1" source="Al_W_ACZ2qxixBHebDrC-32" target="Al_W_ACZ2qxixBHebDrC-19" edge="1">
          <mxGeometry width="50" height="50" relative="1" as="geometry">
            <mxPoint x="390" y="310" as="sourcePoint" />
            <mxPoint x="440" y="260" as="targetPoint" />
          </mxGeometry>
        </mxCell>
        <mxCell id="Al_W_ACZ2qxixBHebDrC-37" value="Создание пользователя" style="ellipse;whiteSpace=wrap;html=1;" parent="1" vertex="1">
          <mxGeometry x="20" y="180" width="100" height="30" as="geometry" />
        </mxCell>
        <mxCell id="Al_W_ACZ2qxixBHebDrC-39" value="Удаление пользователя" style="ellipse;whiteSpace=wrap;html=1;" parent="1" vertex="1">
          <mxGeometry x="20" y="220" width="100" height="30" as="geometry" />
        </mxCell>
        <mxCell id="Al_W_ACZ2qxixBHebDrC-40" value="" style="endArrow=none;html=1;entryX=0;entryY=0.3333333333333333;entryDx=0;entryDy=0;entryPerimeter=0;exitX=1;exitY=0.5;exitDx=0;exitDy=0;" parent="1" source="Al_W_ACZ2qxixBHebDrC-37" target="Al_W_ACZ2qxixBHebDrC-21" edge="1">
          <mxGeometry width="50" height="50" relative="1" as="geometry">
            <mxPoint x="390" y="310" as="sourcePoint" />
            <mxPoint x="440" y="260" as="targetPoint" />
          </mxGeometry>
        </mxCell>
        <mxCell id="Al_W_ACZ2qxixBHebDrC-41" value="" style="endArrow=none;html=1;exitX=1;exitY=0.5;exitDx=0;exitDy=0;entryX=0;entryY=1;entryDx=0;entryDy=0;entryPerimeter=0;" parent="1" source="Al_W_ACZ2qxixBHebDrC-39" target="Al_W_ACZ2qxixBHebDrC-21" edge="1">
          <mxGeometry width="50" height="50" relative="1" as="geometry">
            <mxPoint x="390" y="310" as="sourcePoint" />
            <mxPoint x="150" y="210" as="targetPoint" />
          </mxGeometry>
        </mxCell>
        <mxCell id="Al_W_ACZ2qxixBHebDrC-44" value="Аутентификация" style="ellipse;whiteSpace=wrap;html=1;" parent="1" vertex="1">
          <mxGeometry x="260" y="310" width="100" height="30" as="geometry" />
        </mxCell>
        <mxCell id="Al_W_ACZ2qxixBHebDrC-48" value="&lt;div&gt;Регистрация&lt;/div&gt;" style="ellipse;whiteSpace=wrap;html=1;" parent="1" vertex="1">
          <mxGeometry x="260" y="230" width="100" height="30" as="geometry" />
        </mxCell>
        <mxCell id="Al_W_ACZ2qxixBHebDrC-49" value="&lt;div&gt;Гость&lt;/div&gt;" style="shape=umlActor;verticalLabelPosition=bottom;labelBackgroundColor=#ffffff;verticalAlign=top;html=1;outlineConnect=0;" parent="1" vertex="1">
          <mxGeometry x="280" y="130" width="30" height="60" as="geometry" />
        </mxCell>
        <mxCell id="Al_W_ACZ2qxixBHebDrC-54" value="" style="endArrow=none;html=1;entryX=1;entryY=1;entryDx=0;entryDy=0;entryPerimeter=0;exitX=0.5;exitY=0;exitDx=0;exitDy=0;" parent="1" source="Al_W_ACZ2qxixBHebDrC-48" target="Al_W_ACZ2qxixBHebDrC-49" edge="1">
          <mxGeometry width="50" height="50" relative="1" as="geometry">
            <mxPoint x="390" y="310" as="sourcePoint" />
            <mxPoint x="440" y="260" as="targetPoint" />
          </mxGeometry>
        </mxCell>
        <mxCell id="Al_W_ACZ2qxixBHebDrC-55" value="" style="endArrow=none;html=1;entryX=0;entryY=1;entryDx=0;entryDy=0;entryPerimeter=0;exitX=1;exitY=0.5;exitDx=0;exitDy=0;" parent="1" source="Al_W_ACZ2qxixBHebDrC-44" target="Al_W_ACZ2qxixBHebDrC-19" edge="1">
          <mxGeometry width="50" height="50" relative="1" as="geometry">
            <mxPoint x="390" y="310" as="sourcePoint" />
            <mxPoint x="440" y="260" as="targetPoint" />
          </mxGeometry>
        </mxCell>
        <mxCell id="Al_W_ACZ2qxixBHebDrC-56" value="" style="endArrow=none;html=1;entryX=0;entryY=0.3333333333333333;entryDx=0;entryDy=0;entryPerimeter=0;exitX=1;exitY=0.5;exitDx=0;exitDy=0;" parent="1" source="Al_W_ACZ2qxixBHebDrC-31" target="Al_W_ACZ2qxixBHebDrC-17" edge="1">
          <mxGeometry width="50" height="50" relative="1" as="geometry">
            <mxPoint x="390" y="310" as="sourcePoint" />
            <mxPoint x="440" y="260" as="targetPoint" />
          </mxGeometry>
        </mxCell>
        <mxCell id="Al_W_ACZ2qxixBHebDrC-57" value="" style="endArrow=none;html=1;entryX=0;entryY=0.3333333333333333;entryDx=0;entryDy=0;entryPerimeter=0;exitX=1;exitY=0.5;exitDx=0;exitDy=0;" parent="1" source="Al_W_ACZ2qxixBHebDrC-44" target="Al_W_ACZ2qxixBHebDrC-17" edge="1">
          <mxGeometry width="50" height="50" relative="1" as="geometry">
            <mxPoint x="390" y="310" as="sourcePoint" />
            <mxPoint x="440" y="260" as="targetPoint" />
          </mxGeometry>
        </mxCell>
        <mxCell id="Al_W_ACZ2qxixBHebDrC-58" value="" style="endArrow=none;html=1;entryX=0;entryY=0.3333333333333333;entryDx=0;entryDy=0;entryPerimeter=0;exitX=1;exitY=0.5;exitDx=0;exitDy=0;" parent="1" source="Al_W_ACZ2qxixBHebDrC-25" target="Al_W_ACZ2qxixBHebDrC-17" edge="1">
          <mxGeometry width="50" height="50" relative="1" as="geometry">
            <mxPoint x="390" y="310" as="sourcePoint" />
            <mxPoint x="440" y="260" as="targetPoint" />
          </mxGeometry>
        </mxCell>
        <mxCell id="Al_W_ACZ2qxixBHebDrC-59" value="" style="endArrow=none;html=1;entryX=1;entryY=0.3333333333333333;entryDx=0;entryDy=0;entryPerimeter=0;exitX=0;exitY=0.5;exitDx=0;exitDy=0;" parent="1" source="Al_W_ACZ2qxixBHebDrC-32" target="Al_W_ACZ2qxixBHebDrC-21" edge="1">
          <mxGeometry width="50" height="50" relative="1" as="geometry">
            <mxPoint x="390" y="310" as="sourcePoint" />
            <mxPoint x="440" y="260" as="targetPoint" />
          </mxGeometry>
        </mxCell>
        <mxCell id="Al_W_ACZ2qxixBHebDrC-60" value="" style="endArrow=none;html=1;entryX=1;entryY=0.3333333333333333;entryDx=0;entryDy=0;entryPerimeter=0;exitX=0;exitY=0.5;exitDx=0;exitDy=0;" parent="1" source="Al_W_ACZ2qxixBHebDrC-44" target="Al_W_ACZ2qxixBHebDrC-21" edge="1">
          <mxGeometry width="50" height="50" relative="1" as="geometry">
            <mxPoint x="390" y="310" as="sourcePoint" />
            <mxPoint x="440" y="260" as="targetPoint" />
          </mxGeometry>
        </mxCell>
        <mxCell id="Al_W_ACZ2qxixBHebDrC-61" value="" style="endArrow=none;html=1;entryX=1;entryY=0.3333333333333333;entryDx=0;entryDy=0;entryPerimeter=0;exitX=0;exitY=0.5;exitDx=0;exitDy=0;" parent="1" source="Al_W_ACZ2qxixBHebDrC-31" target="Al_W_ACZ2qxixBHebDrC-21" edge="1">
          <mxGeometry width="50" height="50" relative="1" as="geometry">
            <mxPoint x="390" y="310" as="sourcePoint" />
            <mxPoint x="440" y="260" as="targetPoint" />
          </mxGeometry>
        </mxCell>
      </root>
    </mxGraphModel>
  </diagram>
  <diagram id="3kQnR8I0DaTx_kQPbwh3" name="Sequence">
    <mxGraphModel dx="657" dy="1129" grid="1" gridSize="10" guides="1" tooltips="1" connect="1" arrows="1" fold="1" page="1" pageScale="1" pageWidth="827" pageHeight="1169" math="0" shadow="0">
      <root>
        <mxCell id="E6mYNs60wHKUQ6kCsd_i-0" />
        <mxCell id="E6mYNs60wHKUQ6kCsd_i-1" parent="E6mYNs60wHKUQ6kCsd_i-0" />
        <mxCell id="_PoBEtNQfTZ35guf7GxT-3" value="" style="rounded=0;whiteSpace=wrap;html=1;" vertex="1" parent="E6mYNs60wHKUQ6kCsd_i-1">
          <mxGeometry x="80" y="60" width="110" height="30" as="geometry" />
        </mxCell>
        <mxCell id="_PoBEtNQfTZ35guf7GxT-4" value="&lt;u&gt;гость&lt;/u&gt;" style="text;html=1;strokeColor=none;fillColor=none;align=center;verticalAlign=middle;whiteSpace=wrap;rounded=0;" vertex="1" parent="E6mYNs60wHKUQ6kCsd_i-1">
          <mxGeometry x="80" y="65" width="110" height="20" as="geometry" />
        </mxCell>
        <mxCell id="_PoBEtNQfTZ35guf7GxT-5" value="" style="endArrow=none;dashed=1;html=1;entryX=0.391;entryY=1;entryDx=0;entryDy=0;entryPerimeter=0;" edge="1" parent="E6mYNs60wHKUQ6kCsd_i-1" target="_PoBEtNQfTZ35guf7GxT-3">
          <mxGeometry width="50" height="50" relative="1" as="geometry">
            <mxPoint x="123" y="560" as="sourcePoint" />
            <mxPoint x="210" y="320" as="targetPoint" />
          </mxGeometry>
        </mxCell>
        <mxCell id="_PoBEtNQfTZ35guf7GxT-8" value="" style="rounded=0;whiteSpace=wrap;html=1;" vertex="1" parent="E6mYNs60wHKUQ6kCsd_i-1">
          <mxGeometry x="260" y="60" width="110" height="30" as="geometry" />
        </mxCell>
        <mxCell id="_PoBEtNQfTZ35guf7GxT-9" value="&lt;div&gt;:Блог&lt;/div&gt;" style="text;html=1;strokeColor=none;fillColor=none;align=center;verticalAlign=middle;whiteSpace=wrap;rounded=0;" vertex="1" parent="E6mYNs60wHKUQ6kCsd_i-1">
          <mxGeometry x="260" y="65" width="110" height="20" as="geometry" />
        </mxCell>
        <mxCell id="_PoBEtNQfTZ35guf7GxT-10" value="" style="endArrow=none;dashed=1;html=1;entryX=0.391;entryY=1;entryDx=0;entryDy=0;entryPerimeter=0;" edge="1" parent="E6mYNs60wHKUQ6kCsd_i-1" target="_PoBEtNQfTZ35guf7GxT-8">
          <mxGeometry width="50" height="50" relative="1" as="geometry">
            <mxPoint x="303" y="560" as="sourcePoint" />
            <mxPoint x="390" y="320" as="targetPoint" />
          </mxGeometry>
        </mxCell>
        <mxCell id="_PoBEtNQfTZ35guf7GxT-12" value="" style="rounded=0;whiteSpace=wrap;html=1;" vertex="1" parent="E6mYNs60wHKUQ6kCsd_i-1">
          <mxGeometry x="420" y="60" width="110" height="30" as="geometry" />
        </mxCell>
        <mxCell id="_PoBEtNQfTZ35guf7GxT-13" value=":Личный кабинет" style="text;html=1;strokeColor=none;fillColor=none;align=center;verticalAlign=middle;whiteSpace=wrap;rounded=0;" vertex="1" parent="E6mYNs60wHKUQ6kCsd_i-1">
          <mxGeometry x="420" y="65" width="110" height="20" as="geometry" />
        </mxCell>
        <mxCell id="_PoBEtNQfTZ35guf7GxT-14" value="" style="endArrow=none;dashed=1;html=1;" edge="1" parent="E6mYNs60wHKUQ6kCsd_i-1">
          <mxGeometry width="50" height="50" relative="1" as="geometry">
            <mxPoint x="469.83333333333326" y="240" as="sourcePoint" />
            <mxPoint x="469" y="90" as="targetPoint" />
          </mxGeometry>
        </mxCell>
        <mxCell id="_PoBEtNQfTZ35guf7GxT-15" value="" style="endArrow=classic;html=1;" edge="1" parent="E6mYNs60wHKUQ6kCsd_i-1">
          <mxGeometry width="50" height="50" relative="1" as="geometry">
            <mxPoint x="130" y="160" as="sourcePoint" />
            <mxPoint x="300" y="160" as="targetPoint" />
          </mxGeometry>
        </mxCell>
        <mxCell id="_PoBEtNQfTZ35guf7GxT-16" value="Зарегистрироваться" style="text;html=1;strokeColor=none;fillColor=none;align=center;verticalAlign=middle;whiteSpace=wrap;rounded=0;" vertex="1" parent="E6mYNs60wHKUQ6kCsd_i-1">
          <mxGeometry x="190" y="140" width="40" height="20" as="geometry" />
        </mxCell>
        <mxCell id="_PoBEtNQfTZ35guf7GxT-19" value="" style="rounded=0;whiteSpace=wrap;html=1;" vertex="1" parent="E6mYNs60wHKUQ6kCsd_i-1">
          <mxGeometry x="460" y="250" width="20" height="60" as="geometry" />
        </mxCell>
        <mxCell id="_PoBEtNQfTZ35guf7GxT-26" value="" style="endArrow=none;dashed=1;html=1;entryX=0.5;entryY=1;entryDx=0;entryDy=0;" edge="1" parent="E6mYNs60wHKUQ6kCsd_i-1" target="_PoBEtNQfTZ35guf7GxT-19">
          <mxGeometry width="50" height="50" relative="1" as="geometry">
            <mxPoint x="468" y="560" as="sourcePoint" />
            <mxPoint x="468" y="320" as="targetPoint" />
          </mxGeometry>
        </mxCell>
        <mxCell id="_PoBEtNQfTZ35guf7GxT-34" value="" style="endArrow=classic;html=1;" edge="1" parent="E6mYNs60wHKUQ6kCsd_i-1">
          <mxGeometry width="50" height="50" relative="1" as="geometry">
            <mxPoint x="130" y="160" as="sourcePoint" />
            <mxPoint x="300" y="160" as="targetPoint" />
          </mxGeometry>
        </mxCell>
        <mxCell id="_PoBEtNQfTZ35guf7GxT-35" value="" style="endArrow=classic;html=1;" edge="1" parent="E6mYNs60wHKUQ6kCsd_i-1">
          <mxGeometry width="50" height="50" relative="1" as="geometry">
            <mxPoint x="300" y="240" as="sourcePoint" />
            <mxPoint x="470" y="240" as="targetPoint" />
          </mxGeometry>
        </mxCell>
        <mxCell id="_PoBEtNQfTZ35guf7GxT-38" value="Аутентификация" style="text;html=1;align=center;verticalAlign=middle;resizable=0;points=[];autosize=1;" vertex="1" parent="E6mYNs60wHKUQ6kCsd_i-1">
          <mxGeometry x="330" y="220" width="110" height="20" as="geometry" />
        </mxCell>
        <mxCell id="_PoBEtNQfTZ35guf7GxT-41" value="" style="rounded=0;whiteSpace=wrap;html=1;" vertex="1" parent="E6mYNs60wHKUQ6kCsd_i-1">
          <mxGeometry x="600" y="60" width="110" height="30" as="geometry" />
        </mxCell>
        <mxCell id="_PoBEtNQfTZ35guf7GxT-42" value=":База статей" style="text;html=1;strokeColor=none;fillColor=none;align=center;verticalAlign=middle;whiteSpace=wrap;rounded=0;" vertex="1" parent="E6mYNs60wHKUQ6kCsd_i-1">
          <mxGeometry x="600" y="65" width="110" height="20" as="geometry" />
        </mxCell>
        <mxCell id="_PoBEtNQfTZ35guf7GxT-43" value="" style="endArrow=none;dashed=1;html=1;" edge="1" parent="E6mYNs60wHKUQ6kCsd_i-1">
          <mxGeometry width="50" height="50" relative="1" as="geometry">
            <mxPoint x="649.8333333333333" y="240" as="sourcePoint" />
            <mxPoint x="649" y="90" as="targetPoint" />
          </mxGeometry>
        </mxCell>
        <mxCell id="_PoBEtNQfTZ35guf7GxT-44" value="" style="endArrow=none;dashed=1;html=1;" edge="1" parent="E6mYNs60wHKUQ6kCsd_i-1" source="_PoBEtNQfTZ35guf7GxT-61">
          <mxGeometry width="50" height="50" relative="1" as="geometry">
            <mxPoint x="648" y="560" as="sourcePoint" />
            <mxPoint x="648" y="240" as="targetPoint" />
          </mxGeometry>
        </mxCell>
        <mxCell id="_PoBEtNQfTZ35guf7GxT-47" value="" style="rounded=0;whiteSpace=wrap;html=1;" vertex="1" parent="E6mYNs60wHKUQ6kCsd_i-1">
          <mxGeometry x="290" y="170" width="20" height="60" as="geometry" />
        </mxCell>
        <mxCell id="_PoBEtNQfTZ35guf7GxT-55" value="" style="endArrow=classic;html=1;" edge="1" parent="E6mYNs60wHKUQ6kCsd_i-1">
          <mxGeometry width="50" height="50" relative="1" as="geometry">
            <mxPoint x="470" y="320" as="sourcePoint" />
            <mxPoint x="640" y="320" as="targetPoint" />
          </mxGeometry>
        </mxCell>
        <mxCell id="_PoBEtNQfTZ35guf7GxT-58" value="Поиск статьи" style="text;html=1;align=center;verticalAlign=middle;resizable=0;points=[];autosize=1;" vertex="1" parent="E6mYNs60wHKUQ6kCsd_i-1">
          <mxGeometry x="520" y="300" width="90" height="20" as="geometry" />
        </mxCell>
        <mxCell id="_PoBEtNQfTZ35guf7GxT-61" value="" style="rounded=0;whiteSpace=wrap;html=1;" vertex="1" parent="E6mYNs60wHKUQ6kCsd_i-1">
          <mxGeometry x="640" y="330" width="20" height="60" as="geometry" />
        </mxCell>
        <mxCell id="_PoBEtNQfTZ35guf7GxT-62" value="" style="endArrow=none;dashed=1;html=1;" edge="1" parent="E6mYNs60wHKUQ6kCsd_i-1" target="_PoBEtNQfTZ35guf7GxT-61">
          <mxGeometry width="50" height="50" relative="1" as="geometry">
            <mxPoint x="648" y="560" as="sourcePoint" />
            <mxPoint x="648" y="240" as="targetPoint" />
          </mxGeometry>
        </mxCell>
        <mxCell id="_PoBEtNQfTZ35guf7GxT-63" value="" style="endArrow=classic;html=1;dashed=1;" edge="1" parent="E6mYNs60wHKUQ6kCsd_i-1">
          <mxGeometry width="50" height="50" relative="1" as="geometry">
            <mxPoint x="650" y="400" as="sourcePoint" />
            <mxPoint x="130" y="400" as="targetPoint" />
          </mxGeometry>
        </mxCell>
        <mxCell id="_PoBEtNQfTZ35guf7GxT-66" value="&lt;div&gt;Результаты поиска&lt;/div&gt;&lt;div&gt;&lt;br&gt;&lt;/div&gt;" style="text;html=1;align=center;verticalAlign=middle;resizable=0;points=[];autosize=1;" vertex="1" parent="E6mYNs60wHKUQ6kCsd_i-1">
          <mxGeometry x="339" y="385" width="120" height="30" as="geometry" />
        </mxCell>
      </root>
    </mxGraphModel>
  </diagram>
  <diagram id="BL3xBmCwGFZ_ZQhA_9av" name="Activity">
    <mxGraphModel dx="541" dy="929" grid="1" gridSize="10" guides="1" tooltips="1" connect="1" arrows="1" fold="1" page="1" pageScale="1" pageWidth="827" pageHeight="1169" math="0" shadow="0">
      <root>
        <mxCell id="nLmJ4XCNL6N89rqtuXgu-0" />
        <mxCell id="nLmJ4XCNL6N89rqtuXgu-1" parent="nLmJ4XCNL6N89rqtuXgu-0" />
        <mxCell id="nLmJ4XCNL6N89rqtuXgu-2" value="" style="ellipse;html=1;shape=startState;fillColor=#000000;strokeColor=#ff0000;" vertex="1" parent="nLmJ4XCNL6N89rqtuXgu-1">
          <mxGeometry x="290" y="140" width="30" height="30" as="geometry" />
        </mxCell>
        <mxCell id="nLmJ4XCNL6N89rqtuXgu-3" value="" style="edgeStyle=orthogonalEdgeStyle;html=1;verticalAlign=bottom;endArrow=open;endSize=8;strokeColor=#ff0000;" edge="1" source="nLmJ4XCNL6N89rqtuXgu-2" parent="nLmJ4XCNL6N89rqtuXgu-1">
          <mxGeometry relative="1" as="geometry">
            <mxPoint x="305" y="230" as="targetPoint" />
          </mxGeometry>
        </mxCell>
        <mxCell id="nLmJ4XCNL6N89rqtuXgu-5" value="Поиск статьи" style="rounded=1;whiteSpace=wrap;html=1;arcSize=50;" vertex="1" parent="nLmJ4XCNL6N89rqtuXgu-1">
          <mxGeometry x="250" y="230" width="120" height="60" as="geometry" />
        </mxCell>
        <mxCell id="nLmJ4XCNL6N89rqtuXgu-6" value="Text" style="text;html=1;align=center;verticalAlign=middle;resizable=0;points=[];autosize=1;" vertex="1" parent="nLmJ4XCNL6N89rqtuXgu-1">
          <mxGeometry x="101" y="13" width="40" height="20" as="geometry" />
        </mxCell>
        <mxCell id="nLmJ4XCNL6N89rqtuXgu-7" value="" style="rhombus;whiteSpace=wrap;html=1;" vertex="1" parent="nLmJ4XCNL6N89rqtuXgu-1">
          <mxGeometry x="280" y="320" width="60" height="60" as="geometry" />
        </mxCell>
        <mxCell id="nLmJ4XCNL6N89rqtuXgu-8" value="" style="endArrow=none;html=1;entryX=0.5;entryY=1;entryDx=0;entryDy=0;exitX=0.5;exitY=0;exitDx=0;exitDy=0;startArrow=open;startFill=0;" edge="1" parent="nLmJ4XCNL6N89rqtuXgu-1" source="nLmJ4XCNL6N89rqtuXgu-7" target="nLmJ4XCNL6N89rqtuXgu-5">
          <mxGeometry width="50" height="50" relative="1" as="geometry">
            <mxPoint x="330" y="370" as="sourcePoint" />
            <mxPoint x="320" y="300" as="targetPoint" />
          </mxGeometry>
        </mxCell>
        <mxCell id="nLmJ4XCNL6N89rqtuXgu-9" value="[Правки не требуются]" style="text;html=1;align=center;verticalAlign=middle;resizable=0;points=[];autosize=1;" vertex="1" parent="nLmJ4XCNL6N89rqtuXgu-1">
          <mxGeometry x="150" y="310" width="140" height="20" as="geometry" />
        </mxCell>
        <mxCell id="nLmJ4XCNL6N89rqtuXgu-10" value="[Необходимы правки]" style="text;html=1;align=center;verticalAlign=middle;resizable=0;points=[];autosize=1;" vertex="1" parent="nLmJ4XCNL6N89rqtuXgu-1">
          <mxGeometry x="370" y="280" width="140" height="20" as="geometry" />
        </mxCell>
        <mxCell id="nLmJ4XCNL6N89rqtuXgu-11" value="" style="endArrow=open;html=1;exitX=1;exitY=0.5;exitDx=0;exitDy=0;endFill=0;entryX=0;entryY=0.5;entryDx=0;entryDy=0;" edge="1" parent="nLmJ4XCNL6N89rqtuXgu-1" source="nLmJ4XCNL6N89rqtuXgu-7" target="nLmJ4XCNL6N89rqtuXgu-12">
          <mxGeometry width="50" height="50" relative="1" as="geometry">
            <mxPoint x="420" y="290" as="sourcePoint" />
            <mxPoint x="500" y="260" as="targetPoint" />
            <Array as="points">
              <mxPoint x="410" y="350" />
            </Array>
          </mxGeometry>
        </mxCell>
        <mxCell id="nLmJ4XCNL6N89rqtuXgu-12" value="Добавление примечаний " style="rounded=1;whiteSpace=wrap;html=1;arcSize=50;" vertex="1" parent="nLmJ4XCNL6N89rqtuXgu-1">
          <mxGeometry x="500" y="320" width="120" height="60" as="geometry" />
        </mxCell>
        <mxCell id="nLmJ4XCNL6N89rqtuXgu-13" value="" style="endArrow=open;html=1;exitX=0.5;exitY=1;exitDx=0;exitDy=0;endFill=0;entryX=0.5;entryY=0;entryDx=0;entryDy=0;" edge="1" parent="nLmJ4XCNL6N89rqtuXgu-1" source="nLmJ4XCNL6N89rqtuXgu-12" target="nLmJ4XCNL6N89rqtuXgu-14">
          <mxGeometry width="50" height="50" relative="1" as="geometry">
            <mxPoint x="510" y="380" as="sourcePoint" />
            <mxPoint x="560" y="400" as="targetPoint" />
          </mxGeometry>
        </mxCell>
        <mxCell id="nLmJ4XCNL6N89rqtuXgu-14" value="Блокировка доступа к статье" style="rounded=1;whiteSpace=wrap;html=1;arcSize=50;" vertex="1" parent="nLmJ4XCNL6N89rqtuXgu-1">
          <mxGeometry x="500" y="440" width="120" height="60" as="geometry" />
        </mxCell>
        <mxCell id="nLmJ4XCNL6N89rqtuXgu-15" value="" style="endArrow=open;html=1;exitX=0.5;exitY=1;exitDx=0;exitDy=0;endFill=0;" edge="1" parent="nLmJ4XCNL6N89rqtuXgu-1" source="nLmJ4XCNL6N89rqtuXgu-7">
          <mxGeometry width="50" height="50" relative="1" as="geometry">
            <mxPoint x="309.5" y="410" as="sourcePoint" />
            <mxPoint x="310" y="440" as="targetPoint" />
          </mxGeometry>
        </mxCell>
        <mxCell id="nLmJ4XCNL6N89rqtuXgu-16" value="Разрешение на публикацию" style="rounded=1;whiteSpace=wrap;html=1;arcSize=50;" vertex="1" parent="nLmJ4XCNL6N89rqtuXgu-1">
          <mxGeometry x="250" y="440" width="120" height="60" as="geometry" />
        </mxCell>
        <mxCell id="nLmJ4XCNL6N89rqtuXgu-17" value="" style="endArrow=open;html=1;entryX=1;entryY=0.5;entryDx=0;entryDy=0;endFill=0;" edge="1" parent="nLmJ4XCNL6N89rqtuXgu-1" target="nLmJ4XCNL6N89rqtuXgu-18">
          <mxGeometry width="50" height="50" relative="1" as="geometry">
            <mxPoint x="560" y="500" as="sourcePoint" />
            <mxPoint x="560" y="520" as="targetPoint" />
            <Array as="points">
              <mxPoint x="560" y="555" />
            </Array>
          </mxGeometry>
        </mxCell>
        <mxCell id="nLmJ4XCNL6N89rqtuXgu-24" value="" style="edgeStyle=orthogonalEdgeStyle;rounded=0;orthogonalLoop=1;jettySize=auto;html=1;startArrow=none;startFill=0;endArrow=open;endFill=0;" edge="1" parent="nLmJ4XCNL6N89rqtuXgu-1" source="nLmJ4XCNL6N89rqtuXgu-18" target="nLmJ4XCNL6N89rqtuXgu-23">
          <mxGeometry relative="1" as="geometry" />
        </mxCell>
        <mxCell id="nLmJ4XCNL6N89rqtuXgu-18" value="Отправка уведомления автору" style="rounded=1;whiteSpace=wrap;html=1;arcSize=50;" vertex="1" parent="nLmJ4XCNL6N89rqtuXgu-1">
          <mxGeometry x="390" y="525" width="120" height="60" as="geometry" />
        </mxCell>
        <mxCell id="nLmJ4XCNL6N89rqtuXgu-19" value="" style="endArrow=open;html=1;exitX=0.5;exitY=1;exitDx=0;exitDy=0;entryX=0;entryY=0.5;entryDx=0;entryDy=0;endFill=0;" edge="1" parent="nLmJ4XCNL6N89rqtuXgu-1" source="nLmJ4XCNL6N89rqtuXgu-16" target="nLmJ4XCNL6N89rqtuXgu-18">
          <mxGeometry width="50" height="50" relative="1" as="geometry">
            <mxPoint x="559.5" y="460" as="sourcePoint" />
            <mxPoint x="350" y="555" as="targetPoint" />
            <Array as="points">
              <mxPoint x="310" y="555" />
            </Array>
          </mxGeometry>
        </mxCell>
        <mxCell id="nLmJ4XCNL6N89rqtuXgu-23" value="" style="ellipse;html=1;shape=endState;fillColor=#000000;strokeColor=#ff0000;" vertex="1" parent="nLmJ4XCNL6N89rqtuXgu-1">
          <mxGeometry x="435" y="650" width="30" height="30" as="geometry" />
        </mxCell>
      </root>
    </mxGraphModel>
  </diagram>
  <diagram id="qap-vIjmkIl8wfWFiPa1" name="Class">
    <mxGraphModel dx="1422" dy="791" grid="1" gridSize="10" guides="1" tooltips="1" connect="1" arrows="1" fold="1" page="1" pageScale="1" pageWidth="827" pageHeight="1169" math="0" shadow="0">
      <root>
        <mxCell id="k5Ja5THx-vXlIXqIRyzw-0" />
        <mxCell id="k5Ja5THx-vXlIXqIRyzw-1" parent="k5Ja5THx-vXlIXqIRyzw-0" />
        <mxCell id="k5Ja5THx-vXlIXqIRyzw-6" value="Article" style="swimlane;fontStyle=1;align=center;verticalAlign=top;childLayout=stackLayout;horizontal=1;startSize=26;horizontalStack=0;resizeParent=1;resizeParentMax=0;resizeLast=0;collapsible=1;marginBottom=0;" parent="k5Ja5THx-vXlIXqIRyzw-1" vertex="1">
          <mxGeometry x="40" y="30" width="160" height="180" as="geometry" />
        </mxCell>
        <mxCell id="k5Ja5THx-vXlIXqIRyzw-7" value="+ text: String&#xa;+ label: String&#xa;+ timeCreated : int&#xa;+ author : User&#xa;+ securityLevel : byte&#xa;" style="text;strokeColor=none;fillColor=none;align=left;verticalAlign=top;spacingLeft=4;spacingRight=4;overflow=hidden;rotatable=0;points=[[0,0.5],[1,0.5]];portConstraint=eastwest;" parent="k5Ja5THx-vXlIXqIRyzw-6" vertex="1">
          <mxGeometry y="26" width="160" height="94" as="geometry" />
        </mxCell>
        <mxCell id="k5Ja5THx-vXlIXqIRyzw-8" value="" style="line;strokeWidth=1;fillColor=none;align=left;verticalAlign=middle;spacingTop=-1;spacingLeft=3;spacingRight=3;rotatable=0;labelPosition=right;points=[];portConstraint=eastwest;" parent="k5Ja5THx-vXlIXqIRyzw-6" vertex="1">
          <mxGeometry y="120" width="160" height="8" as="geometry" />
        </mxCell>
        <mxCell id="k5Ja5THx-vXlIXqIRyzw-9" value="+ modify(String): &#xa;&#xa;+ createNew():&#xa;" style="text;strokeColor=none;fillColor=none;align=left;verticalAlign=top;spacingLeft=4;spacingRight=4;overflow=hidden;rotatable=0;points=[[0,0.5],[1,0.5]];portConstraint=eastwest;" parent="k5Ja5THx-vXlIXqIRyzw-6" vertex="1">
          <mxGeometry y="128" width="160" height="52" as="geometry" />
        </mxCell>
        <mxCell id="k5Ja5THx-vXlIXqIRyzw-10" value="User" style="swimlane;fontStyle=1;align=center;verticalAlign=top;childLayout=stackLayout;horizontal=1;startSize=26;horizontalStack=0;resizeParent=1;resizeParentMax=0;resizeLast=0;collapsible=1;marginBottom=0;" parent="k5Ja5THx-vXlIXqIRyzw-1" vertex="1">
          <mxGeometry x="480" y="50" width="160" height="190" as="geometry" />
        </mxCell>
        <mxCell id="k5Ja5THx-vXlIXqIRyzw-11" value="+ name: String&#xa;+ age : int&#xa;+ securityLevel : byte &#xa;&#xa;" style="text;strokeColor=none;fillColor=none;align=left;verticalAlign=top;spacingLeft=4;spacingRight=4;overflow=hidden;rotatable=0;points=[[0,0.5],[1,0.5]];portConstraint=eastwest;" parent="k5Ja5THx-vXlIXqIRyzw-10" vertex="1">
          <mxGeometry y="26" width="160" height="84" as="geometry" />
        </mxCell>
        <mxCell id="k5Ja5THx-vXlIXqIRyzw-12" value="" style="line;strokeWidth=1;fillColor=none;align=left;verticalAlign=middle;spacingTop=-1;spacingLeft=3;spacingRight=3;rotatable=0;labelPosition=right;points=[];portConstraint=eastwest;" parent="k5Ja5THx-vXlIXqIRyzw-10" vertex="1">
          <mxGeometry y="110" width="160" height="8" as="geometry" />
        </mxCell>
        <mxCell id="k5Ja5THx-vXlIXqIRyzw-13" value="+ setAge(int): &#xa;+ setName(String):&#xa;+ getAge():&#xa;+getName():&#xa;" style="text;strokeColor=none;fillColor=none;align=left;verticalAlign=top;spacingLeft=4;spacingRight=4;overflow=hidden;rotatable=0;points=[[0,0.5],[1,0.5]];portConstraint=eastwest;" parent="k5Ja5THx-vXlIXqIRyzw-10" vertex="1">
          <mxGeometry y="118" width="160" height="72" as="geometry" />
        </mxCell>
        <mxCell id="B2Lnre3A1Hbk87EHOEck-0" value="RegisteredUser" style="swimlane;fontStyle=1;align=center;verticalAlign=top;childLayout=stackLayout;horizontal=1;startSize=26;horizontalStack=0;resizeParent=1;resizeParentMax=0;resizeLast=0;collapsible=1;marginBottom=0;" vertex="1" parent="k5Ja5THx-vXlIXqIRyzw-1">
          <mxGeometry x="600" y="290" width="160" height="106" as="geometry" />
        </mxCell>
        <mxCell id="B2Lnre3A1Hbk87EHOEck-2" value="" style="line;strokeWidth=1;fillColor=none;align=left;verticalAlign=middle;spacingTop=-1;spacingLeft=3;spacingRight=3;rotatable=0;labelPosition=right;points=[];portConstraint=eastwest;" vertex="1" parent="B2Lnre3A1Hbk87EHOEck-0">
          <mxGeometry y="26" width="160" height="8" as="geometry" />
        </mxCell>
        <mxCell id="B2Lnre3A1Hbk87EHOEck-3" value="+ makeArticle()&#xa;+ deleteArticle()&#xa;" style="text;strokeColor=none;fillColor=none;align=left;verticalAlign=top;spacingLeft=4;spacingRight=4;overflow=hidden;rotatable=0;points=[[0,0.5],[1,0.5]];portConstraint=eastwest;" vertex="1" parent="B2Lnre3A1Hbk87EHOEck-0">
          <mxGeometry y="34" width="160" height="72" as="geometry" />
        </mxCell>
        <mxCell id="B2Lnre3A1Hbk87EHOEck-4" value="Admin" style="swimlane;fontStyle=1;align=center;verticalAlign=top;childLayout=stackLayout;horizontal=1;startSize=26;horizontalStack=0;resizeParent=1;resizeParentMax=0;resizeLast=0;collapsible=1;marginBottom=0;" vertex="1" parent="k5Ja5THx-vXlIXqIRyzw-1">
          <mxGeometry x="360" y="300" width="160" height="106" as="geometry" />
        </mxCell>
        <mxCell id="B2Lnre3A1Hbk87EHOEck-6" value="" style="line;strokeWidth=1;fillColor=none;align=left;verticalAlign=middle;spacingTop=-1;spacingLeft=3;spacingRight=3;rotatable=0;labelPosition=right;points=[];portConstraint=eastwest;" vertex="1" parent="B2Lnre3A1Hbk87EHOEck-4">
          <mxGeometry y="26" width="160" height="8" as="geometry" />
        </mxCell>
        <mxCell id="B2Lnre3A1Hbk87EHOEck-7" value="+ addNewUser()&#xa;+ deleteUser()&#xa;&#xa;" style="text;strokeColor=none;fillColor=none;align=left;verticalAlign=top;spacingLeft=4;spacingRight=4;overflow=hidden;rotatable=0;points=[[0,0.5],[1,0.5]];portConstraint=eastwest;" vertex="1" parent="B2Lnre3A1Hbk87EHOEck-4">
          <mxGeometry y="34" width="160" height="72" as="geometry" />
        </mxCell>
        <mxCell id="B2Lnre3A1Hbk87EHOEck-11" value="" style="endArrow=classic;dashed=1;html=1;endFill=1;" edge="1" parent="k5Ja5THx-vXlIXqIRyzw-1" target="k5Ja5THx-vXlIXqIRyzw-13">
          <mxGeometry width="50" height="50" relative="1" as="geometry">
            <mxPoint x="440" y="300" as="sourcePoint" />
            <mxPoint x="490" y="250" as="targetPoint" />
          </mxGeometry>
        </mxCell>
        <mxCell id="B2Lnre3A1Hbk87EHOEck-12" value="&amp;lt;&amp;lt;extend&amp;gt;&amp;gt;" style="text;html=1;align=center;verticalAlign=middle;resizable=0;points=[];autosize=1;" vertex="1" parent="k5Ja5THx-vXlIXqIRyzw-1">
          <mxGeometry x="395" y="260" width="80" height="20" as="geometry" />
        </mxCell>
        <mxCell id="B2Lnre3A1Hbk87EHOEck-13" value="" style="endArrow=classic;dashed=1;html=1;endFill=1;exitX=0.319;exitY=-0.038;exitDx=0;exitDy=0;exitPerimeter=0;entryX=0.888;entryY=1.028;entryDx=0;entryDy=0;entryPerimeter=0;" edge="1" parent="k5Ja5THx-vXlIXqIRyzw-1" source="B2Lnre3A1Hbk87EHOEck-0" target="k5Ja5THx-vXlIXqIRyzw-13">
          <mxGeometry width="50" height="50" relative="1" as="geometry">
            <mxPoint x="670" y="280" as="sourcePoint" />
            <mxPoint x="610" y="250" as="targetPoint" />
          </mxGeometry>
        </mxCell>
        <mxCell id="B2Lnre3A1Hbk87EHOEck-14" value="&lt;div&gt;&amp;lt;&amp;lt;extend&amp;gt;&amp;gt;&lt;/div&gt;" style="text;html=1;align=center;verticalAlign=middle;resizable=0;points=[];autosize=1;" vertex="1" parent="k5Ja5THx-vXlIXqIRyzw-1">
          <mxGeometry x="635" y="250" width="80" height="20" as="geometry" />
        </mxCell>
        <mxCell id="k5Ja5THx-vXlIXqIRyzw-2" value="Blog" style="swimlane;fontStyle=1;align=center;verticalAlign=top;childLayout=stackLayout;horizontal=1;startSize=26;horizontalStack=0;resizeParent=1;resizeParentMax=0;resizeLast=0;collapsible=1;marginBottom=0;" parent="k5Ja5THx-vXlIXqIRyzw-1" vertex="1">
          <mxGeometry x="60" y="340" width="260" height="260" as="geometry" />
        </mxCell>
        <mxCell id="k5Ja5THx-vXlIXqIRyzw-3" value="+ article: Article&#xa;+ user : User&#xa;&#xa; &#xa;&#xa;&#xa;" style="text;strokeColor=none;fillColor=none;align=left;verticalAlign=top;spacingLeft=4;spacingRight=4;overflow=hidden;rotatable=0;points=[[0,0.5],[1,0.5]];portConstraint=eastwest;" parent="k5Ja5THx-vXlIXqIRyzw-2" vertex="1">
          <mxGeometry y="26" width="260" height="94" as="geometry" />
        </mxCell>
        <mxCell id="k5Ja5THx-vXlIXqIRyzw-4" value="" style="line;strokeWidth=1;fillColor=none;align=left;verticalAlign=middle;spacingTop=-1;spacingLeft=3;spacingRight=3;rotatable=0;labelPosition=right;points=[];portConstraint=eastwest;" parent="k5Ja5THx-vXlIXqIRyzw-2" vertex="1">
          <mxGeometry y="120" width="260" height="8" as="geometry" />
        </mxCell>
        <mxCell id="k5Ja5THx-vXlIXqIRyzw-5" value="+ addArticle(Article): boolean&#xa;+ removeArticle(Article): boolean&#xa;+ setArticleSecurityLevel(byte): boolean&#xa;&#xa;+ addUser(User): boolean&#xa;+ removeUser(User): boolean" style="text;strokeColor=none;fillColor=none;align=left;verticalAlign=top;spacingLeft=4;spacingRight=4;overflow=hidden;rotatable=0;points=[[0,0.5],[1,0.5]];portConstraint=eastwest;" parent="k5Ja5THx-vXlIXqIRyzw-2" vertex="1">
          <mxGeometry y="128" width="260" height="132" as="geometry" />
        </mxCell>
      </root>
    </mxGraphModel>
  </diagram>
</mxfile>
